<svg xmlns="http://www.w3.org/2000/svg" viewBox="0 0 424 57.94"><defs>
    <style>.cls-1{fill:#25374e;}.cls-2{fill:#db383d;}</style></defs><title>Asset 4</title><g id="Layer_2" data-name="Layer 2"><g id="Layer_3" data-name="Layer 3"><path class="cls-1" d="M28.55,18.16a13.76,13.76,0,0,1-1.09,5.65A11.11,11.11,0,0,1,24.27,28a14.5,14.5,0,0,1-5.14,2.56A25.85,25.85,0,0,1,12,31.4H8.48V43.5a.79.79,0,0,1-.21.53,1.57,1.57,0,0,1-.7.38,7.25,7.25,0,0,1-1.29.23,19.06,19.06,0,0,1-2.06.09,19.51,19.51,0,0,1-2-.09,7.38,7.38,0,0,1-1.3-.23A1.48,1.48,0,0,1,.19,44,.82.82,0,0,1,0,43.5V9.4A2.59,2.59,0,0,1,.79,7.33a3.05,3.05,0,0,1,2.08-.69H12.7c1,0,1.93,0,2.82.11a31.17,31.17,0,0,1,3.2.44,15.12,15.12,0,0,1,3.79,1.24,11.17,11.17,0,0,1,3.27,2.3A9.43,9.43,0,0,1,27.84,14,11.53,11.53,0,0,1,28.55,18.16Zm-8.86.55a6.37,6.37,0,0,0-.77-3.28,5.09,5.09,0,0,0-1.9-1.9,6.89,6.89,0,0,0-2.37-.78,21.36,21.36,0,0,0-2.57-.16H8.48V25.45h3.8a9.88,9.88,0,0,0,3.4-.5,5.62,5.62,0,0,0,3.56-3.53A7.9,7.9,0,0,0,19.69,18.71Z"/><path class="cls-1" d="M59.93,43.56a.91.91,0,0,1-.16.51,1.2,1.2,0,0,1-.57.37,5.25,5.25,0,0,1-1.06.22,15.4,15.4,0,0,1-1.66.07,16.21,16.21,0,0,1-1.73-.07,4.88,4.88,0,0,1-1-.22,1.18,1.18,0,0,1-.55-.37.84.84,0,0,1-.16-.51v-3a18.2,18.2,0,0,1-4.85,3.52A11.82,11.82,0,0,1,43,45.23a12.37,12.37,0,0,1-5-.88A8.53,8.53,0,0,1,34.81,42,9.42,9.42,0,0,1,33,38.42a20.14,20.14,0,0,1-.53-5v-16a.8.8,0,0,1,.18-.52,1.31,1.31,0,0,1,.64-.36,6.32,6.32,0,0,1,1.26-.22c.53,0,1.18-.08,2-.08s1.45,0,2,.08a6.22,6.22,0,0,1,1.24.22,1.45,1.45,0,0,1,.66.36.76.76,0,0,1,.19.52V32.19a13.12,13.12,0,0,0,.29,3.14,5.36,5.36,0,0,0,.89,1.86,4.15,4.15,0,0,0,1.51,1.2,5.11,5.11,0,0,0,2.14.42,5.69,5.69,0,0,0,3.12-1,18.09,18.09,0,0,0,3.33-3V17.43a.8.8,0,0,1,.18-.52,1.31,1.31,0,0,1,.64-.36,6.22,6.22,0,0,1,1.24-.22c.52,0,1.17-.08,2-.08s1.45,0,2,.08a5.84,5.84,0,0,1,1.23.22,1.42,1.42,0,0,1,.64.36.77.77,0,0,1,.2.52ZM53.84,7.46a5.77,5.77,0,0,1-.52,2.47,4.9,4.9,0,0,1-1.5,1.83,7,7,0,0,1-2.4,1.14,12.27,12.27,0,0,1-3.25.39,12.11,12.11,0,0,1-3.26-.38,6.56,6.56,0,0,1-2.3-1.09,4.51,4.51,0,0,1-1.37-1.76,6,6,0,0,1-.45-2.39,5.69,5.69,0,0,1,.5-2.46,4.75,4.75,0,0,1,1.48-1.83,6.68,6.68,0,0,1,2.4-1.13,12.72,12.72,0,0,1,3.25-.38A9.08,9.08,0,0,1,52,3.3,4.92,4.92,0,0,1,53.84,7.46ZM49,7.61a2.54,2.54,0,0,0-.66-1.83,2.8,2.8,0,0,0-2.11-.69,2.68,2.68,0,0,0-1.95.65,2.37,2.37,0,0,0-.66,1.78,2.65,2.65,0,0,0,.63,1.88,2.78,2.78,0,0,0,2.11.67,2.69,2.69,0,0,0,2-.66A2.43,2.43,0,0,0,49,7.61Z"/><path class="cls-1" d="M74.83,44.44a17.43,17.43,0,0,1-.58,5,8.3,8.3,0,0,1-1.75,3.21,7.5,7.5,0,0,1-3,2,11.91,11.91,0,0,1-4.16.66,14.27,14.27,0,0,1-2.25-.16,6.72,6.72,0,0,1-1.36-.34,1.19,1.19,0,0,1-.58-.44,1.73,1.73,0,0,1-.22-.6,5.2,5.2,0,0,1-.1-.76c0-.29,0-.65,0-1.1a13,13,0,0,1,0-1.36,3.42,3.42,0,0,1,.17-.87,1.52,1.52,0,0,1,.29-.47.64.64,0,0,1,.42-.14,5.19,5.19,0,0,1,.66.07,7.44,7.44,0,0,0,1.08.07A4,4,0,0,0,65,48.92a2.27,2.27,0,0,0,1-.75,3.5,3.5,0,0,0,.58-1.32,11.87,11.87,0,0,0,.2-2.56V17.48a.75.75,0,0,1,.19-.51,1.52,1.52,0,0,1,.64-.38,5.59,5.59,0,0,1,1.23-.25,17.45,17.45,0,0,1,2-.09,17.64,17.64,0,0,1,2,.09,6,6,0,0,1,1.24.25,1.55,1.55,0,0,1,.66.38.75.75,0,0,1,.19.51Zm.62-35.86a3.89,3.89,0,0,1-1,3.07c-.65.57-1.89.85-3.72.85s-3-.27-3.67-.82a3.7,3.7,0,0,1-1-3,3.94,3.94,0,0,1,1-3.09c.66-.57,1.9-.86,3.71-.86s3,.28,3.69.83A3.85,3.85,0,0,1,75.45,8.58Z"/><path class="cls-1" d="M102.73,39.4c0,.51,0,.93,0,1.27a7.42,7.42,0,0,1-.13.87,2.71,2.71,0,0,1-.19.57,2.26,2.26,0,0,1-.5.55,7.37,7.37,0,0,1-1.32.83,14.09,14.09,0,0,1-2.13.86,18.57,18.57,0,0,1-2.59.61,17.16,17.16,0,0,1-2.89.24,17,17,0,0,1-5.88-.94,11,11,0,0,1-4.3-2.77A11.89,11.89,0,0,1,80.12,37a19,19,0,0,1-.88-6,19.15,19.15,0,0,1,1.07-6.78,12.71,12.71,0,0,1,3-4.73,12.23,12.23,0,0,1,4.57-2.79,18,18,0,0,1,5.8-.91,15.07,15.07,0,0,1,2.53.21,15.45,15.45,0,0,1,2.32.56,12.05,12.05,0,0,1,1.94.79,5.72,5.72,0,0,1,1.21.76,3.26,3.26,0,0,1,.5.54,1.88,1.88,0,0,1,.22.57,5.77,5.77,0,0,1,.13.87c0,.34,0,.75,0,1.24a6.33,6.33,0,0,1-.32,2.39q-.33.69-.84.69a2.12,2.12,0,0,1-1.16-.41c-.41-.28-.89-.58-1.45-.91a12.13,12.13,0,0,0-2-.91,8.42,8.42,0,0,0-2.77-.41A5.69,5.69,0,0,0,89.23,24q-1.68,2.22-1.68,6.49A14.77,14.77,0,0,0,88,34.18a7.49,7.49,0,0,0,1.24,2.7,5.11,5.11,0,0,0,2.06,1.62,7,7,0,0,0,2.89.55A8.06,8.06,0,0,0,97,38.59a11.86,11.86,0,0,0,2.11-1c.6-.37,1.11-.71,1.52-1a1.86,1.86,0,0,1,1-.45.83.83,0,0,1,.48.14,1,1,0,0,1,.31.55,6.36,6.36,0,0,1,.17,1A13.6,13.6,0,0,1,102.73,39.4ZM96,4.42a3.76,3.76,0,0,1,.45-.5,1.45,1.45,0,0,1,.62-.31,4.58,4.58,0,0,1,1-.14c.4,0,.92-.05,1.56-.05a16.1,16.1,0,0,1,2,.09,1.61,1.61,0,0,1,.9.32.5.5,0,0,1,.06.6,4.22,4.22,0,0,1-.61.93l-5.06,6.53a2.16,2.16,0,0,1-.54.45,2.74,2.74,0,0,1-.81.3,10,10,0,0,1-1.19.14c-.48,0-1,.05-1.71.05s-1.24,0-1.71-.06a7.59,7.59,0,0,1-1.18-.18A3.1,3.1,0,0,1,89,12.3a1.47,1.47,0,0,1-.47-.41L83.36,5.36a5.22,5.22,0,0,1-.58-.93.5.5,0,0,1,.06-.6,1.66,1.66,0,0,1,.92-.32,16.07,16.07,0,0,1,1.95-.09c.69,0,1.23,0,1.63.05a3.83,3.83,0,0,1,1,.16,1.41,1.41,0,0,1,.56.3,4.55,4.55,0,0,1,.42.49l3.32,4.42Z"/><path class="cls-1" d="M135.36,30.23a18.14,18.14,0,0,1-1,6.09,12.55,12.55,0,0,1-2.93,4.75,13,13,0,0,1-4.93,3.07,20,20,0,0,1-6.93,1.09,20.53,20.53,0,0,1-6.67-1,12.16,12.16,0,0,1-4.71-2.81,11.4,11.4,0,0,1-2.77-4.54,19.41,19.41,0,0,1-.9-6.15,18.25,18.25,0,0,1,1-6.11,12.68,12.68,0,0,1,3-4.75,13.19,13.19,0,0,1,4.92-3.06,20.05,20.05,0,0,1,6.91-1.08,20.94,20.94,0,0,1,6.7,1,11.8,11.8,0,0,1,4.69,2.8,11.32,11.32,0,0,1,2.76,4.54A19.43,19.43,0,0,1,135.36,30.23Zm-8.35.29a17.21,17.21,0,0,0-.34-3.56,7.87,7.87,0,0,0-1.14-2.83,5.54,5.54,0,0,0-2.14-1.87,7.46,7.46,0,0,0-3.37-.67,7.75,7.75,0,0,0-3.16.6,5.54,5.54,0,0,0-2.22,1.75,8.09,8.09,0,0,0-1.31,2.79,14.35,14.35,0,0,0-.43,3.7,16.47,16.47,0,0,0,.35,3.56,8.29,8.29,0,0,0,1.15,2.83,5.24,5.24,0,0,0,2.14,1.86,7.6,7.6,0,0,0,3.35.66,7.79,7.79,0,0,0,3.19-.6A5.61,5.61,0,0,0,125.3,37a7.79,7.79,0,0,0,1.29-2.77A14.91,14.91,0,0,0,127,30.52Z"/><path class="cls-1" d="M166.06,17.4c0,.09,0,.21,0,.35a4.32,4.32,0,0,1-.06.45l-.13.57-.21.74L157,43.15a2.25,2.25,0,0,1-.43.8,1.9,1.9,0,0,1-.91.49,8.71,8.71,0,0,1-1.7.23q-1.08.06-2.82.06c-1.14,0-2.07,0-2.79-.07a8.25,8.25,0,0,1-1.69-.25,1.82,1.82,0,0,1-.89-.49,2.29,2.29,0,0,1-.44-.77L136.7,19.51c-.13-.4-.23-.75-.31-1.06a6,6,0,0,1-.13-.67c0-.14,0-.27,0-.38a.85.85,0,0,1,.17-.52,1.41,1.41,0,0,1,.63-.36,5.43,5.43,0,0,1,1.24-.21c.53,0,1.19-.06,2-.06s1.59,0,2.12.08a7.51,7.51,0,0,1,1.28.2,1.3,1.3,0,0,1,.66.38,2.43,2.43,0,0,1,.32.6L151.2,36.7l.19.74.2-.74L158,17.51a1.71,1.71,0,0,1,.31-.6,1.39,1.39,0,0,1,.66-.38,6.71,6.71,0,0,1,1.21-.2c.5,0,1.16-.08,2-.08s1.44,0,1.95.06a4.84,4.84,0,0,1,1.18.21,1.31,1.31,0,0,1,.58.36A.91.91,0,0,1,166.06,17.4Z"/><path class="cls-1" d="M196.3,43.56a.75.75,0,0,1-.19.51,1.42,1.42,0,0,1-.64.37,6.7,6.7,0,0,1-1.24.22c-.53.05-1.18.07-1.95.07s-1.46,0-2-.07a6.7,6.7,0,0,1-1.24-.22,1.42,1.42,0,0,1-.64-.37.76.76,0,0,1-.2-.51V28.65a11.7,11.7,0,0,0-.3-3A5.74,5.74,0,0,0,187,23.8a3.71,3.71,0,0,0-1.5-1.2,4.93,4.93,0,0,0-2.14-.43,5.71,5.71,0,0,0-3.13,1,16.18,16.18,0,0,0-3.28,3V43.56a.76.76,0,0,1-.2.51,1.4,1.4,0,0,1-.66.37,6.87,6.87,0,0,1-1.24.22c-.51.05-1.17.07-2,.07s-1.45,0-2-.07a7,7,0,0,1-1.24-.22,1.45,1.45,0,0,1-.66-.37.75.75,0,0,1-.19-.51V17.43a.85.85,0,0,1,.16-.52,1.18,1.18,0,0,1,.58-.36,5,5,0,0,1,1.08-.22,14.94,14.94,0,0,1,1.66-.08,16.08,16.08,0,0,1,1.71.08,4.12,4.12,0,0,1,1,.22,1.1,1.1,0,0,1,.53.36.85.85,0,0,1,.17.52v3a18,18,0,0,1,4.85-3.51,11.82,11.82,0,0,1,5.14-1.17,12.45,12.45,0,0,1,4.94.87A8.73,8.73,0,0,1,194,19a9.51,9.51,0,0,1,1.79,3.53,19.09,19.09,0,0,1,.54,4.87Z"/><path class="cls-1" d="M226.78,43.65a.75.75,0,0,1-.33.64,2.28,2.28,0,0,1-1,.34,21.68,21.68,0,0,1-4.16,0,1.87,1.87,0,0,1-.93-.34.79.79,0,0,1-.28-.64V41.57a13,13,0,0,1-4,2.69,12.69,12.69,0,0,1-5,1,15.5,15.5,0,0,1-4.21-.54,9.8,9.8,0,0,1-3.32-1.62,7.38,7.38,0,0,1-2.18-2.65,8.36,8.36,0,0,1-.77-3.69,7.82,7.82,0,0,1,1-4A7.67,7.67,0,0,1,204.43,30a15.5,15.5,0,0,1,4.85-1.63,38.19,38.19,0,0,1,6.73-.52h2.81V26.24a7.68,7.68,0,0,0-.28-2.15,3.5,3.5,0,0,0-.9-1.54,3.87,3.87,0,0,0-1.68-.91,10,10,0,0,0-2.59-.29,14.86,14.86,0,0,0-3.63.41,24.08,24.08,0,0,0-2.82.91c-.81.33-1.49.63-2,.91a3.29,3.29,0,0,1-1.34.41,1,1,0,0,1-.63-.21,1.5,1.5,0,0,1-.45-.58,3.62,3.62,0,0,1-.27-.94,6.66,6.66,0,0,1-.1-1.23,5,5,0,0,1,.16-1.44,2.18,2.18,0,0,1,.61-.95,6.67,6.67,0,0,1,1.58-.94,19.88,19.88,0,0,1,2.64-.95,28.12,28.12,0,0,1,3.31-.72,24.65,24.65,0,0,1,3.69-.27,24.15,24.15,0,0,1,5.78.6,10.12,10.12,0,0,1,3.95,1.84,7.21,7.21,0,0,1,2.26,3.21,13.8,13.8,0,0,1,.71,4.66Zm-8-11.2h-3.1a17.78,17.78,0,0,0-3.35.27,6.78,6.78,0,0,0-2.26.79,3.43,3.43,0,0,0-1.27,1.27,3.55,3.55,0,0,0-.4,1.72,3.17,3.17,0,0,0,1.14,2.58,4.9,4.9,0,0,0,3.18.93,6.37,6.37,0,0,0,3.14-.79,13.15,13.15,0,0,0,2.92-2.31Z"/><path class="cls-2" d="M321.43,23.46A27,27,0,0,0,320,16.38a32.46,32.46,0,0,0-3.08-6.26A24.22,24.22,0,0,0,312,4.59,20.5,20.5,0,0,0,305.25.9a20.72,20.72,0,0,0-7.58-.85,29,29,0,0,0-13.47,4.8A31.7,31.7,0,0,0,280.12,8a25,25,0,0,0-4.41-3.56A28.27,28.27,0,0,0,262.24.26,24.06,24.06,0,0,0,255,.93a20.22,20.22,0,0,0-6.61,3.13,28.21,28.21,0,0,0-8.52,10.65,28.45,28.45,0,0,0-2.24,6.45,26.65,26.65,0,0,0-.51,7,27.65,27.65,0,0,0,4.36,12.81,35.5,35.5,0,0,0,8.72,9.28,33.91,33.91,0,0,0,11,5.55.78.78,0,0,0,.81-1.26l0,0c-5.1-6-9.9-11.77-12.91-17.86s-3.83-12.28-1.44-18.5A17.2,17.2,0,0,1,253,10.34a9.55,9.55,0,0,1,8.21-1.71c2.92.73,5.54,2.74,7.73,4.87a30.16,30.16,0,0,1,5.46,6.84l5.89,10.75L285,20.51A22.55,22.55,0,0,1,290.28,13a13.62,13.62,0,0,1,8.06-3.65A9.09,9.09,0,0,1,305.67,12a18.14,18.14,0,0,1,4.45,7.78,17.69,17.69,0,0,1,.59,8.77,26.38,26.38,0,0,1-3.63,8.92,63.43,63.43,0,0,1-6.48,8.67c-2.46,2.84-5.14,5.64-7.94,8.48l0,0a.66.66,0,0,0-.16.59.64.64,0,0,0,.76.5,32.85,32.85,0,0,0,5.88-1.91A40.93,40.93,0,0,0,304.63,51a40,40,0,0,0,9.76-8.15,29.31,29.31,0,0,0,6.38-12.1A24.8,24.8,0,0,0,321.43,23.46Z"/><path class="cls-2" d="M361.68,19.69a92.08,92.08,0,0,0,6.05-7.52A57.28,57.28,0,0,0,372.9,3.7a.93.93,0,0,0,0-.75.92.92,0,0,0-1.2-.49A58.8,58.8,0,0,0,363,7.11a94.51,94.51,0,0,0-7.87,5.59A92.26,92.26,0,0,0,347.87,19L344.75,22l-3.92-3.94a94.05,94.05,0,0,0-7.19-6.48,96.54,96.54,0,0,0-7.86-5.8A60.08,60.08,0,0,0,317,.94a1,1,0,0,0-.76,0,.92.92,0,0,0-.44,1.22,59.79,59.79,0,0,0,5.11,8.63,94.36,94.36,0,0,0,6,7.7,94.06,94.06,0,0,0,6.66,7l3.79,3.57c-3.47,3.19-7,6.3-10.27,9.72-4.35,4.69-8.63,9.44-11,16.25a.89.89,0,0,0,0,.46.77.77,0,0,0,.94.53C324,54.11,329,50.12,334,46.07c3.74-3.16,7.16-6.64,10.68-10,3.25,3.25,6.44,6.56,9.9,9.59,4.92,4.19,9.91,8.31,16.87,10.41a.72.72,0,0,0,.46,0,.77.77,0,0,0,.48-1c-2.28-6.9-6.53-11.77-10.85-16.58-3-3.25-6.25-6.24-9.46-9.28l3-2.68A92,92,0,0,0,361.68,19.69Z"/><path class="cls-2" d="M423.14,35.72a17.12,17.12,0,0,0-4.7-7.08A23.87,23.87,0,0,0,412,24.5a38.12,38.12,0,0,0-6.65-2.21,66.6,66.6,0,0,0-13.07-1.57c-2.15-.07-4.29,0-6.42.07L384,20.9c-.05-1.52-.07-3-.06-4.54s.07-3.29.16-4.93l4.8-.24,9.1-.53a82.6,82.6,0,0,0,9.08-1.17,83.68,83.68,0,0,0,9-2.12A1.66,1.66,0,0,0,417.24,6a1.64,1.64,0,0,0-1.45-1.81h0c-3-.35-6-.6-9-.83s-6-.45-9-.46-6-.08-9-.2-6-.26-8.93-.43h-.05a4.46,4.46,0,0,0-4.67,4.25l0,.43h0a78.39,78.39,0,0,1,.58,9.43,82.45,82.45,0,0,1-.4,9.42,3.64,3.64,0,0,0,2.78,4l2.2.52h0c1.79-.13,3.82-.19,5.73-.19s3.88.08,5.8.18A57.86,57.86,0,0,1,403,31.84c3.48.86,6.73,2.25,8.7,4.1a7.18,7.18,0,0,1,2,3,3.63,3.63,0,0,1,.06,2.62,5.9,5.9,0,0,1-2.1,2.42,19.35,19.35,0,0,1-4.11,2.21,45.74,45.74,0,0,1-10.34,2.74,50.88,50.88,0,0,1-11.1.54,25.31,25.31,0,0,1-5.43-.95,11.87,11.87,0,0,1-4.9-2.69l0,0a.54.54,0,0,0-.49-.13.55.55,0,0,0-.41.67A11.29,11.29,0,0,0,378.65,52a22.37,22.37,0,0,0,5.93,3.45,36.34,36.34,0,0,0,13.16,2.49,38.39,38.39,0,0,0,13.5-2.22,25.57,25.57,0,0,0,6.6-3.61,16,16,0,0,0,5.37-7A13.1,13.1,0,0,0,424,40.2,15.24,15.24,0,0,0,423.14,35.72Z"/></g></g></svg>